M48
;Layer_Color=9474304
;FILE_FORMAT=2:3
INCH,LZ
;TYPE=PLATED
T1F00S00C0.010
T2F00S00C0.020
T3F00S00C0.040
T4F00S00C0.060
%
T01
X02372Y00677
Y00727
Y00777
Y00827
Y00877
Y00927
Y00972
Y01422
Y01472
Y01522
Y01572
Y01622
Y01672
Y01717
X01162Y00632
T02
X00832Y00362
X00827Y00567
X00552Y00582
T03
X01117Y00107
X01217
X01317
X01417
X01517
X01617
X01717
X01817
X02017
X02117
X02217
X02317
X02417
X02517
Y02007
X02417
X02317
X02217
X02117
X02017
X01917
X01817
X01657
X01557
X01457
X01357
X01257
X01157
X01057
X00957
X00857
X00757
T04
X00297Y00967
X00291Y01242
M30
