G04*
G04 #@! TF.GenerationSoftware,Altium Limited,Altium Designer,23.0.1 (38)*
G04*
G04 Layer_Color=8388736*
%FSLAX44Y44*%
%MOMM*%
G71*
G04*
G04 #@! TF.SameCoordinates,64DEC9DB-233E-40C6-88A2-80678BC6FC1E*
G04*
G04*
G04 #@! TF.FilePolarity,Negative*
G04*
G01*
G75*
G04:AMPARAMS|DCode=14|XSize=0.4mm|YSize=0.33mm|CornerRadius=0.0825mm|HoleSize=0mm|Usage=FLASHONLY|Rotation=270.000|XOffset=0mm|YOffset=0mm|HoleType=Round|Shape=RoundedRectangle|*
%AMROUNDEDRECTD14*
21,1,0.4000,0.1650,0,0,270.0*
21,1,0.2350,0.3300,0,0,270.0*
1,1,0.1650,-0.0825,-0.1175*
1,1,0.1650,-0.0825,0.1175*
1,1,0.1650,0.0825,0.1175*
1,1,0.1650,0.0825,-0.1175*
%
%ADD14ROUNDEDRECTD14*%
G04:AMPARAMS|DCode=15|XSize=0.4mm|YSize=0.38mm|CornerRadius=0.095mm|HoleSize=0mm|Usage=FLASHONLY|Rotation=270.000|XOffset=0mm|YOffset=0mm|HoleType=Round|Shape=RoundedRectangle|*
%AMROUNDEDRECTD15*
21,1,0.4000,0.1900,0,0,270.0*
21,1,0.2100,0.3800,0,0,270.0*
1,1,0.1900,-0.0950,-0.1050*
1,1,0.1900,-0.0950,0.1050*
1,1,0.1900,0.0950,0.1050*
1,1,0.1900,0.0950,-0.1050*
%
%ADD15ROUNDEDRECTD15*%
%ADD16R,1.4700X1.1600*%
%ADD17R,1.0100X0.9300*%
%ADD18R,1.4700X1.1500*%
%ADD19R,3.9000X6.7600*%
%ADD20R,0.7000X6.7600*%
%ADD21R,4.0000X1.5000*%
%ADD22R,0.3800X0.4000*%
G04:AMPARAMS|DCode=23|XSize=1.45mm|YSize=0.59mm|CornerRadius=0.0738mm|HoleSize=0mm|Usage=FLASHONLY|Rotation=90.000|XOffset=0mm|YOffset=0mm|HoleType=Round|Shape=RoundedRectangle|*
%AMROUNDEDRECTD23*
21,1,1.4500,0.4425,0,0,90.0*
21,1,1.3025,0.5900,0,0,90.0*
1,1,0.1475,0.2213,0.6513*
1,1,0.1475,0.2213,-0.6513*
1,1,0.1475,-0.2213,-0.6513*
1,1,0.1475,-0.2213,0.6513*
%
%ADD23ROUNDEDRECTD23*%
%ADD24R,1.5300X1.5300*%
%ADD25C,1.5300*%
%ADD26C,2.5400*%
%ADD27C,0.5080*%
%ADD28C,0.7112*%
D14*
X283741Y161314D02*
D03*
D15*
X277891D02*
D03*
D16*
X162099Y168352D02*
D03*
Y185952D02*
D03*
D17*
X225555Y108990D02*
D03*
X211375D02*
D03*
D18*
X140208Y168402D02*
D03*
Y186002D02*
D03*
D19*
X550164Y397764D02*
D03*
X550418Y209042D02*
D03*
D20*
X580164Y397764D02*
D03*
X520164D02*
D03*
X580418Y209042D02*
D03*
X520418D02*
D03*
D21*
X370078Y128558D02*
D03*
Y164558D02*
D03*
D22*
X277891Y174776D02*
D03*
X283511D02*
D03*
D23*
X210105Y163854D02*
D03*
X219605D02*
D03*
X229105D02*
D03*
Y186954D02*
D03*
X219605D02*
D03*
X210105D02*
D03*
D24*
X192278Y509778D02*
D03*
X512318Y27178D02*
D03*
X283718D02*
D03*
X461518Y509778D02*
D03*
D25*
X217678D02*
D03*
X243078D02*
D03*
X268478D02*
D03*
X293878D02*
D03*
X319278D02*
D03*
X344678D02*
D03*
X370078D02*
D03*
X395478D02*
D03*
X420878D02*
D03*
X537718Y27178D02*
D03*
X563118D02*
D03*
X588518D02*
D03*
X613918D02*
D03*
X639318D02*
D03*
X309118D02*
D03*
X334518D02*
D03*
X359918D02*
D03*
X385318D02*
D03*
X410718D02*
D03*
X436118D02*
D03*
X461518D02*
D03*
X486918Y509778D02*
D03*
X512318D02*
D03*
X537718D02*
D03*
X563118D02*
D03*
X588518D02*
D03*
X613918D02*
D03*
X639318D02*
D03*
D26*
X75438Y245618D02*
D03*
X73914Y315468D02*
D03*
D27*
X295148Y160528D02*
D03*
X602488Y235458D02*
D03*
Y171958D02*
D03*
Y197358D02*
D03*
Y184658D02*
D03*
Y246888D02*
D03*
Y210058D02*
D03*
Y436118D02*
D03*
Y424688D02*
D03*
Y411988D02*
D03*
Y399288D02*
D03*
Y386588D02*
D03*
Y373888D02*
D03*
Y361188D02*
D03*
Y222758D02*
D03*
D28*
X140208Y147828D02*
D03*
X211328Y91948D02*
D03*
X210058Y144018D02*
D03*
M02*
