G04*
G04 #@! TF.GenerationSoftware,Altium Limited,Altium Designer,23.0.1 (38)*
G04*
G04 Layer_Physical_Order=1*
G04 Layer_Color=152*
%FSLAX44Y44*%
%MOMM*%
G71*
G04*
G04 #@! TF.SameCoordinates,64DEC9DB-233E-40C6-88A2-80678BC6FC1E*
G04*
G04*
G04 #@! TF.FilePolarity,Positive*
G04*
G01*
G75*
%ADD13C,0.2540*%
G04:AMPARAMS|DCode=14|XSize=0.4mm|YSize=0.33mm|CornerRadius=0.0825mm|HoleSize=0mm|Usage=FLASHONLY|Rotation=270.000|XOffset=0mm|YOffset=0mm|HoleType=Round|Shape=RoundedRectangle|*
%AMROUNDEDRECTD14*
21,1,0.4000,0.1650,0,0,270.0*
21,1,0.2350,0.3300,0,0,270.0*
1,1,0.1650,-0.0825,-0.1175*
1,1,0.1650,-0.0825,0.1175*
1,1,0.1650,0.0825,0.1175*
1,1,0.1650,0.0825,-0.1175*
%
%ADD14ROUNDEDRECTD14*%
G04:AMPARAMS|DCode=15|XSize=0.4mm|YSize=0.38mm|CornerRadius=0.095mm|HoleSize=0mm|Usage=FLASHONLY|Rotation=270.000|XOffset=0mm|YOffset=0mm|HoleType=Round|Shape=RoundedRectangle|*
%AMROUNDEDRECTD15*
21,1,0.4000,0.1900,0,0,270.0*
21,1,0.2100,0.3800,0,0,270.0*
1,1,0.1900,-0.0950,-0.1050*
1,1,0.1900,-0.0950,0.1050*
1,1,0.1900,0.0950,0.1050*
1,1,0.1900,0.0950,-0.1050*
%
%ADD15ROUNDEDRECTD15*%
%ADD16R,1.4700X1.1600*%
%ADD17R,1.0100X0.9300*%
%ADD18R,1.4700X1.1500*%
%ADD19R,3.9000X6.7600*%
%ADD20R,0.7000X6.7600*%
%ADD21R,4.0000X1.5000*%
%ADD22R,0.3800X0.4000*%
G04:AMPARAMS|DCode=23|XSize=1.45mm|YSize=0.59mm|CornerRadius=0.0738mm|HoleSize=0mm|Usage=FLASHONLY|Rotation=90.000|XOffset=0mm|YOffset=0mm|HoleType=Round|Shape=RoundedRectangle|*
%AMROUNDEDRECTD23*
21,1,1.4500,0.4425,0,0,90.0*
21,1,1.3025,0.5900,0,0,90.0*
1,1,0.1475,0.2213,0.6513*
1,1,0.1475,0.2213,-0.6513*
1,1,0.1475,-0.2213,-0.6513*
1,1,0.1475,-0.2213,0.6513*
%
%ADD23ROUNDEDRECTD23*%
%ADD24R,1.5300X1.5300*%
%ADD25C,1.5300*%
%ADD26C,2.5400*%
%ADD27C,0.5080*%
%ADD28C,0.7112*%
%ADD29C,0.3810*%
%ADD30C,0.7620*%
%ADD31C,0.5080*%
G36*
X525780Y434104D02*
X521434D01*
Y397764D01*
Y361424D01*
X525780D01*
Y245382D01*
X521688D01*
Y209042D01*
Y172399D01*
X522049Y171529D01*
X518668Y168148D01*
X517398D01*
X66802Y266954D01*
X52578Y281178D01*
Y411226D01*
X51816Y411988D01*
X82296Y442468D01*
X525780D01*
Y434104D01*
D02*
G37*
G36*
X613918Y439928D02*
Y160528D01*
X533908D01*
X527558Y166878D01*
X527602Y171753D01*
X528378Y172702D01*
X528881Y172702D01*
X549148D01*
Y209042D01*
Y245382D01*
X529542D01*
X528283Y246613D01*
X529327Y361424D01*
X548894D01*
Y397764D01*
Y434104D01*
X530890D01*
X529995Y435006D01*
X530098Y446278D01*
X607568D01*
X613918Y439928D01*
D02*
G37*
%LPC*%
G36*
X518894Y434104D02*
X514124D01*
Y399034D01*
X518894D01*
Y434104D01*
D02*
G37*
G36*
Y396494D02*
X514124D01*
Y361424D01*
X518894D01*
Y396494D01*
D02*
G37*
G36*
X77724Y330249D02*
Y319278D01*
X88695D01*
X88568Y319913D01*
X87420Y322687D01*
X85752Y325183D01*
X83629Y327306D01*
X81133Y328974D01*
X78359Y330122D01*
X77724Y330249D01*
D02*
G37*
G36*
X70104D02*
X69469Y330122D01*
X66695Y328974D01*
X64199Y327306D01*
X62076Y325183D01*
X60409Y322687D01*
X59260Y319913D01*
X59133Y319278D01*
X70104D01*
Y330249D01*
D02*
G37*
G36*
X88695Y311658D02*
X77724D01*
Y300687D01*
X78359Y300814D01*
X81133Y301963D01*
X83629Y303630D01*
X85752Y305753D01*
X87420Y308249D01*
X88568Y311023D01*
X88695Y311658D01*
D02*
G37*
G36*
X70104D02*
X59133D01*
X59260Y311023D01*
X60409Y308249D01*
X62076Y305753D01*
X64199Y303630D01*
X66695Y301963D01*
X69469Y300814D01*
X70104Y300687D01*
Y311658D01*
D02*
G37*
G36*
X519148Y245382D02*
X514378D01*
Y210312D01*
X519148D01*
Y245382D01*
D02*
G37*
G36*
Y207772D02*
X514378D01*
Y172702D01*
X519148D01*
Y207772D01*
D02*
G37*
G36*
X603758Y441091D02*
Y437388D01*
X607461D01*
X606795Y438996D01*
X605366Y440425D01*
X603758Y441091D01*
D02*
G37*
G36*
X601218D02*
X599610Y440425D01*
X598181Y438996D01*
X597515Y437388D01*
X601218D01*
Y441091D01*
D02*
G37*
G36*
X607461Y434848D02*
X603758D01*
Y431146D01*
X605366Y431811D01*
X606795Y433240D01*
X607461Y434848D01*
D02*
G37*
G36*
X601218D02*
X597515D01*
X598181Y433240D01*
X599610Y431811D01*
X601218Y431146D01*
Y434848D01*
D02*
G37*
G36*
X603758Y429660D02*
Y425958D01*
X607461D01*
X606795Y427566D01*
X605366Y428995D01*
X603758Y429660D01*
D02*
G37*
G36*
X601218D02*
X599610Y428995D01*
X598181Y427566D01*
X597515Y425958D01*
X601218D01*
Y429660D01*
D02*
G37*
G36*
X607461Y423418D02*
X603758D01*
Y419715D01*
X605366Y420381D01*
X606795Y421810D01*
X607461Y423418D01*
D02*
G37*
G36*
X601218D02*
X597515D01*
X598181Y421810D01*
X599610Y420381D01*
X601218Y419715D01*
Y423418D01*
D02*
G37*
G36*
X603758Y416960D02*
Y413258D01*
X607461D01*
X606795Y414866D01*
X605366Y416295D01*
X603758Y416960D01*
D02*
G37*
G36*
X601218D02*
X599610Y416295D01*
X598181Y414866D01*
X597515Y413258D01*
X601218D01*
Y416960D01*
D02*
G37*
G36*
X607461Y410718D02*
X603758D01*
Y407015D01*
X605366Y407681D01*
X606795Y409110D01*
X607461Y410718D01*
D02*
G37*
G36*
X601218D02*
X597515D01*
X598181Y409110D01*
X599610Y407681D01*
X601218Y407015D01*
Y410718D01*
D02*
G37*
G36*
X603758Y404260D02*
Y400558D01*
X607461D01*
X606795Y402166D01*
X605366Y403595D01*
X603758Y404260D01*
D02*
G37*
G36*
X601218D02*
X599610Y403595D01*
X598181Y402166D01*
X597515Y400558D01*
X601218D01*
Y404260D01*
D02*
G37*
G36*
X586204Y434104D02*
X581434D01*
Y399034D01*
X586204D01*
Y434104D01*
D02*
G37*
G36*
X578894D02*
X574124D01*
Y399034D01*
X578894D01*
Y434104D01*
D02*
G37*
G36*
X572204D02*
X551434D01*
Y399034D01*
X572204D01*
Y434104D01*
D02*
G37*
G36*
X607461Y398018D02*
X603758D01*
Y394315D01*
X605366Y394981D01*
X606795Y396410D01*
X607461Y398018D01*
D02*
G37*
G36*
X601218D02*
X597515D01*
X598181Y396410D01*
X599610Y394981D01*
X601218Y394315D01*
Y398018D01*
D02*
G37*
G36*
X603758Y391561D02*
Y387858D01*
X607461D01*
X606795Y389466D01*
X605366Y390895D01*
X603758Y391561D01*
D02*
G37*
G36*
X601218D02*
X599610Y390895D01*
X598181Y389466D01*
X597515Y387858D01*
X601218D01*
Y391561D01*
D02*
G37*
G36*
X607461Y385318D02*
X603758D01*
Y381615D01*
X605366Y382281D01*
X606795Y383710D01*
X607461Y385318D01*
D02*
G37*
G36*
X601218D02*
X597515D01*
X598181Y383710D01*
X599610Y382281D01*
X601218Y381615D01*
Y385318D01*
D02*
G37*
G36*
X603758Y378861D02*
Y375158D01*
X607461D01*
X606795Y376766D01*
X605366Y378195D01*
X603758Y378861D01*
D02*
G37*
G36*
X601218D02*
X599610Y378195D01*
X598181Y376766D01*
X597515Y375158D01*
X601218D01*
Y378861D01*
D02*
G37*
G36*
X607461Y372618D02*
X603758D01*
Y368915D01*
X605366Y369581D01*
X606795Y371010D01*
X607461Y372618D01*
D02*
G37*
G36*
X601218D02*
X597515D01*
X598181Y371010D01*
X599610Y369581D01*
X601218Y368915D01*
Y372618D01*
D02*
G37*
G36*
X603758Y366161D02*
Y362458D01*
X607461D01*
X606795Y364066D01*
X605366Y365495D01*
X603758Y366161D01*
D02*
G37*
G36*
X601218D02*
X599610Y365495D01*
X598181Y364066D01*
X597515Y362458D01*
X601218D01*
Y366161D01*
D02*
G37*
G36*
X586204Y396494D02*
X581434D01*
Y361424D01*
X586204D01*
Y396494D01*
D02*
G37*
G36*
X578894D02*
X574124D01*
Y361424D01*
X578894D01*
Y396494D01*
D02*
G37*
G36*
X572204D02*
X551434D01*
Y361424D01*
X572204D01*
Y396494D01*
D02*
G37*
G36*
X607461Y359918D02*
X603758D01*
Y356216D01*
X605366Y356881D01*
X606795Y358310D01*
X607461Y359918D01*
D02*
G37*
G36*
X601218D02*
X597515D01*
X598181Y358310D01*
X599610Y356881D01*
X601218Y356216D01*
Y359918D01*
D02*
G37*
G36*
X603758Y251861D02*
Y248158D01*
X607461D01*
X606795Y249766D01*
X605366Y251195D01*
X603758Y251861D01*
D02*
G37*
G36*
X601218D02*
X599610Y251195D01*
X598181Y249766D01*
X597515Y248158D01*
X601218D01*
Y251861D01*
D02*
G37*
G36*
X607461Y245618D02*
X603758D01*
Y241915D01*
X605366Y242581D01*
X606795Y244010D01*
X607461Y245618D01*
D02*
G37*
G36*
X601218D02*
X597515D01*
X598181Y244010D01*
X599610Y242581D01*
X601218Y241915D01*
Y245618D01*
D02*
G37*
G36*
X603758Y240431D02*
Y236728D01*
X607461D01*
X606795Y238336D01*
X605366Y239765D01*
X603758Y240431D01*
D02*
G37*
G36*
X601218D02*
X599610Y239765D01*
X598181Y238336D01*
X597515Y236728D01*
X601218D01*
Y240431D01*
D02*
G37*
G36*
X607461Y234188D02*
X603758D01*
Y230485D01*
X605366Y231151D01*
X606795Y232580D01*
X607461Y234188D01*
D02*
G37*
G36*
X601218D02*
X597515D01*
X598181Y232580D01*
X599610Y231151D01*
X601218Y230485D01*
Y234188D01*
D02*
G37*
G36*
X603758Y227731D02*
Y224028D01*
X607461D01*
X606795Y225636D01*
X605366Y227065D01*
X603758Y227731D01*
D02*
G37*
G36*
X601218D02*
X599610Y227065D01*
X598181Y225636D01*
X597515Y224028D01*
X601218D01*
Y227731D01*
D02*
G37*
G36*
X607461Y221488D02*
X603758D01*
Y217785D01*
X605366Y218451D01*
X606795Y219880D01*
X607461Y221488D01*
D02*
G37*
G36*
X601218D02*
X597515D01*
X598181Y219880D01*
X599610Y218451D01*
X601218Y217785D01*
Y221488D01*
D02*
G37*
G36*
X603758Y215030D02*
Y211328D01*
X607461D01*
X606795Y212936D01*
X605366Y214365D01*
X603758Y215030D01*
D02*
G37*
G36*
X601218D02*
X599610Y214365D01*
X598181Y212936D01*
X597515Y211328D01*
X601218D01*
Y215030D01*
D02*
G37*
G36*
X586458Y245382D02*
X581688D01*
Y210312D01*
X586458D01*
Y245382D01*
D02*
G37*
G36*
X579148D02*
X574378D01*
Y210312D01*
X579148D01*
Y245382D01*
D02*
G37*
G36*
X572458D02*
X551688D01*
Y210312D01*
X572458D01*
Y245382D01*
D02*
G37*
G36*
X607461Y208788D02*
X603758D01*
Y205086D01*
X605366Y205751D01*
X606795Y207180D01*
X607461Y208788D01*
D02*
G37*
G36*
X601218D02*
X597515D01*
X598181Y207180D01*
X599610Y205751D01*
X601218Y205086D01*
Y208788D01*
D02*
G37*
G36*
X603758Y202330D02*
Y198628D01*
X607461D01*
X606795Y200236D01*
X605366Y201665D01*
X603758Y202330D01*
D02*
G37*
G36*
X601218D02*
X599610Y201665D01*
X598181Y200236D01*
X597515Y198628D01*
X601218D01*
Y202330D01*
D02*
G37*
G36*
X607461Y196088D02*
X603758D01*
Y192386D01*
X605366Y193051D01*
X606795Y194480D01*
X607461Y196088D01*
D02*
G37*
G36*
X601218D02*
X597515D01*
X598181Y194480D01*
X599610Y193051D01*
X601218Y192386D01*
Y196088D01*
D02*
G37*
G36*
X603758Y189631D02*
Y185928D01*
X607461D01*
X606795Y187536D01*
X605366Y188965D01*
X603758Y189631D01*
D02*
G37*
G36*
X601218D02*
X599610Y188965D01*
X598181Y187536D01*
X597515Y185928D01*
X601218D01*
Y189631D01*
D02*
G37*
G36*
X607461Y183388D02*
X603758D01*
Y179685D01*
X605366Y180351D01*
X606795Y181780D01*
X607461Y183388D01*
D02*
G37*
G36*
X601218D02*
X597515D01*
X598181Y181780D01*
X599610Y180351D01*
X601218Y179685D01*
Y183388D01*
D02*
G37*
G36*
X603758Y176931D02*
Y173228D01*
X607461D01*
X606795Y174836D01*
X605366Y176265D01*
X603758Y176931D01*
D02*
G37*
G36*
X601218D02*
X599610Y176265D01*
X598181Y174836D01*
X597515Y173228D01*
X601218D01*
Y176931D01*
D02*
G37*
G36*
X586458Y207772D02*
X581688D01*
Y172702D01*
X586458D01*
Y207772D01*
D02*
G37*
G36*
X579148D02*
X574378D01*
Y172702D01*
X579148D01*
Y207772D01*
D02*
G37*
G36*
X572458D02*
X551688D01*
Y172702D01*
X572458D01*
Y207772D01*
D02*
G37*
G36*
X607461Y170688D02*
X603758D01*
Y166985D01*
X605366Y167651D01*
X606795Y169080D01*
X607461Y170688D01*
D02*
G37*
G36*
X601218D02*
X597515D01*
X598181Y169080D01*
X599610Y167651D01*
X601218Y166985D01*
Y170688D01*
D02*
G37*
%LPD*%
D13*
X229105Y186954D02*
X265813D01*
X219605D02*
X219964Y186595D01*
X75438Y321818D02*
X76989Y320267D01*
X277891Y161314D02*
Y174776D01*
X294755Y160921D02*
X295148Y160528D01*
X284121Y160921D02*
X294755D01*
X283741Y161301D02*
X284121Y160921D01*
X283741Y161301D02*
Y161314D01*
X283511Y174776D02*
X347360D01*
X277891D02*
Y174876D01*
X265813Y186954D02*
X277891Y174876D01*
X217460Y127254D02*
X219605Y129399D01*
Y163854D01*
X204747Y127254D02*
X217460D01*
X162099Y168352D02*
X163649D01*
X204747Y127254D01*
X162099Y185952D02*
X163101Y186954D01*
X210105D01*
X357578Y164558D02*
X370078D01*
X347360Y174776D02*
X357578Y164558D01*
Y128558D02*
X370078D01*
X211328Y108943D02*
X211375Y108990D01*
X210082Y163831D02*
X210105Y163854D01*
X210058Y144018D02*
X210082Y144042D01*
D14*
X283741Y161314D02*
D03*
D15*
X277891D02*
D03*
D16*
X162099Y168352D02*
D03*
Y185952D02*
D03*
D17*
X225555Y108990D02*
D03*
X211375D02*
D03*
D18*
X140208Y168402D02*
D03*
Y186002D02*
D03*
D19*
X550164Y397764D02*
D03*
X550418Y209042D02*
D03*
D20*
X580164Y397764D02*
D03*
X520164D02*
D03*
X580418Y209042D02*
D03*
X520418D02*
D03*
D21*
X370078Y128558D02*
D03*
Y164558D02*
D03*
D22*
X277891Y174776D02*
D03*
X283511D02*
D03*
D23*
X210105Y163854D02*
D03*
X219605D02*
D03*
X229105D02*
D03*
Y186954D02*
D03*
X219605D02*
D03*
X210105D02*
D03*
D24*
X192278Y509778D02*
D03*
X512318Y27178D02*
D03*
X283718D02*
D03*
X461518Y509778D02*
D03*
D25*
X217678D02*
D03*
X243078D02*
D03*
X268478D02*
D03*
X293878D02*
D03*
X319278D02*
D03*
X344678D02*
D03*
X370078D02*
D03*
X395478D02*
D03*
X420878D02*
D03*
X537718Y27178D02*
D03*
X563118D02*
D03*
X588518D02*
D03*
X613918D02*
D03*
X639318D02*
D03*
X309118D02*
D03*
X334518D02*
D03*
X359918D02*
D03*
X385318D02*
D03*
X410718D02*
D03*
X436118D02*
D03*
X461518D02*
D03*
X486918Y509778D02*
D03*
X512318D02*
D03*
X537718D02*
D03*
X563118D02*
D03*
X588518D02*
D03*
X613918D02*
D03*
X639318D02*
D03*
D26*
X75438Y245618D02*
D03*
X73914Y315468D02*
D03*
D27*
X295148Y160528D02*
D03*
X602488Y235458D02*
D03*
Y171958D02*
D03*
Y197358D02*
D03*
Y184658D02*
D03*
Y246888D02*
D03*
Y210058D02*
D03*
Y436118D02*
D03*
Y424688D02*
D03*
Y411988D02*
D03*
Y399288D02*
D03*
Y386588D02*
D03*
Y373888D02*
D03*
Y361188D02*
D03*
Y222758D02*
D03*
D28*
X140208Y147828D02*
D03*
X211328Y91948D02*
D03*
X210058Y144018D02*
D03*
D29*
X219605Y186954D02*
Y244856D01*
X229105Y163854D02*
Y173733D01*
X219964Y179578D02*
X225809Y173733D01*
X229105D01*
X219964Y179578D02*
Y186595D01*
X228060Y164899D02*
X229105Y163854D01*
X302010Y108990D02*
X357578Y164558D01*
X225555Y108990D02*
X302010D01*
X186944Y62738D02*
X291758D01*
X357578Y128558D01*
X162099Y87583D02*
X186944Y62738D01*
X162099Y87583D02*
Y168352D01*
X140208Y147828D02*
Y168402D01*
X211328Y91948D02*
Y108943D01*
X210082Y144042D02*
Y163831D01*
D30*
X140208Y186002D02*
Y257048D01*
X409956Y87594D02*
Y160094D01*
X405492Y164558D02*
X409956Y160094D01*
X370078Y164558D02*
X405492D01*
X408468Y86106D02*
X409956Y87594D01*
X397256Y86106D02*
X408468D01*
X385318Y74168D02*
X397256Y86106D01*
X385318Y27178D02*
Y74168D01*
Y9616D02*
Y27178D01*
Y9616D02*
X386806Y8128D01*
X442468D01*
X461518Y27178D01*
D31*
X613918D02*
X627634Y40894D01*
Y446532D01*
X617220Y456946D02*
X627634Y446532D01*
X245110Y456946D02*
X617220D01*
X192278Y509778D02*
X245110Y456946D01*
X217678Y509778D02*
X245872Y481584D01*
X614208D02*
X654050Y441742D01*
X245872Y481584D02*
X614208D01*
X639318Y27178D02*
X654050Y41910D01*
Y441742D01*
X410718Y27178D02*
X436118D01*
M02*
