G04*
G04 #@! TF.GenerationSoftware,Altium Limited,Altium Designer,23.0.1 (38)*
G04*
G04 Layer_Color=255*
%FSLAX44Y44*%
%MOMM*%
G71*
G04*
G04 #@! TF.SameCoordinates,64DEC9DB-233E-40C6-88A2-80678BC6FC1E*
G04*
G04*
G04 #@! TF.FilePolarity,Positive*
G04*
G01*
G75*
%ADD24R,1.5300X1.5300*%
%ADD25C,1.5300*%
%ADD26C,2.5400*%
D24*
X192278Y509778D02*
D03*
X512318Y27178D02*
D03*
X283718D02*
D03*
X461518Y509778D02*
D03*
D25*
X217678D02*
D03*
X243078D02*
D03*
X268478D02*
D03*
X293878D02*
D03*
X319278D02*
D03*
X344678D02*
D03*
X370078D02*
D03*
X395478D02*
D03*
X420878D02*
D03*
X537718Y27178D02*
D03*
X563118D02*
D03*
X588518D02*
D03*
X613918D02*
D03*
X639318D02*
D03*
X309118D02*
D03*
X334518D02*
D03*
X359918D02*
D03*
X385318D02*
D03*
X410718D02*
D03*
X436118D02*
D03*
X461518D02*
D03*
X486918Y509778D02*
D03*
X512318D02*
D03*
X537718D02*
D03*
X563118D02*
D03*
X588518D02*
D03*
X613918D02*
D03*
X639318D02*
D03*
D26*
X75438Y245618D02*
D03*
X73914Y315468D02*
D03*
M02*
