G04*
G04 #@! TF.GenerationSoftware,Altium Limited,Altium Designer,23.0.1 (38)*
G04*
G04 Layer_Color=2752767*
%FSLAX44Y44*%
%MOMM*%
G71*
G04*
G04 #@! TF.SameCoordinates,64DEC9DB-233E-40C6-88A2-80678BC6FC1E*
G04*
G04*
G04 #@! TF.FilePolarity,Positive*
G04*
G01*
G75*
%ADD11C,0.1270*%
%ADD34C,0.1693*%
D11*
X187198Y504698D02*
Y514858D01*
X197358D01*
Y504698D01*
X187198D01*
X212598D02*
Y514858D01*
X222758D01*
Y504698D01*
X212598D01*
X237998D02*
Y514858D01*
X248158D01*
Y504698D01*
X237998D01*
X263398D02*
Y514858D01*
X273558D01*
Y504698D01*
X263398D01*
X288798D02*
Y514858D01*
X298958D01*
Y504698D01*
X288798D01*
X314198D02*
Y514858D01*
X324358D01*
Y504698D01*
X314198D01*
X339598D02*
Y514858D01*
X349758D01*
Y504698D01*
X339598D01*
X364998D02*
Y514858D01*
X375158D01*
Y504698D01*
X364998D01*
X390398D02*
Y514858D01*
X400558D01*
Y504698D01*
X390398D01*
X415798D02*
Y514858D01*
X425958D01*
Y504698D01*
X415798D01*
X507238Y22098D02*
Y32258D01*
X517398D01*
Y22098D01*
X507238D01*
X532638D02*
Y32258D01*
X542798D01*
Y22098D01*
X532638D01*
X558038D02*
Y32258D01*
X568198D01*
Y22098D01*
X558038D01*
X583438D02*
Y32258D01*
X593598D01*
Y22098D01*
X583438D01*
X608838D02*
Y32258D01*
X618998D01*
Y22098D01*
X608838D01*
X634238D02*
Y32258D01*
X644398D01*
Y22098D01*
X634238D01*
X278638D02*
Y32258D01*
X288798D01*
Y22098D01*
X278638D01*
X304038D02*
Y32258D01*
X314198D01*
Y22098D01*
X304038D01*
X329438D02*
Y32258D01*
X339598D01*
Y22098D01*
X329438D01*
X354838D02*
Y32258D01*
X364998D01*
Y22098D01*
X354838D01*
X380238D02*
Y32258D01*
X390398D01*
Y22098D01*
X380238D01*
X405638D02*
Y32258D01*
X415798D01*
Y22098D01*
X405638D01*
X431038D02*
Y32258D01*
X441198D01*
Y22098D01*
X431038D01*
X456438D02*
Y32258D01*
X466598D01*
Y22098D01*
X456438D01*
Y504698D02*
Y514858D01*
X466598D01*
Y504698D01*
X456438D01*
X481838D02*
Y514858D01*
X491998D01*
Y504698D01*
X481838D01*
X507238D02*
Y514858D01*
X517398D01*
Y504698D01*
X507238D01*
X532638D02*
Y514858D01*
X542798D01*
Y504698D01*
X532638D01*
X558038D02*
Y514858D01*
X568198D01*
Y504698D01*
X558038D01*
X583438D02*
Y514858D01*
X593598D01*
Y504698D01*
X583438D01*
X608838D02*
Y514858D01*
X618998D01*
Y504698D01*
X608838D01*
X634238D02*
Y514858D01*
X644398D01*
Y504698D01*
X634238D01*
X75438Y240538D02*
X70358Y250698D01*
X80518D01*
X75438Y240538D01*
X73914Y310388D02*
X68834Y320548D01*
X78994D01*
X73914Y310388D01*
X295148Y155448D02*
X297688Y157988D01*
X300228D01*
X297688Y160528D01*
X300228Y163068D01*
X297688D01*
X295148Y165608D01*
X292608Y163068D01*
X290068D01*
X292608Y160528D01*
X290068Y157988D01*
X292608D01*
X295148Y155448D01*
X602488Y230378D02*
X605028Y232918D01*
X607568D01*
X605028Y235458D01*
X607568Y237998D01*
X605028D01*
X602488Y240538D01*
X599948Y237998D01*
X597408D01*
X599948Y235458D01*
X597408Y232918D01*
X599948D01*
X602488Y230378D01*
Y166878D02*
X605028Y169418D01*
X607568D01*
X605028Y171958D01*
X607568Y174498D01*
X605028D01*
X602488Y177038D01*
X599948Y174498D01*
X597408D01*
X599948Y171958D01*
X597408Y169418D01*
X599948D01*
X602488Y166878D01*
Y192278D02*
X605028Y194818D01*
X607568D01*
X605028Y197358D01*
X607568Y199898D01*
X605028D01*
X602488Y202438D01*
X599948Y199898D01*
X597408D01*
X599948Y197358D01*
X597408Y194818D01*
X599948D01*
X602488Y192278D01*
Y179578D02*
X605028Y182118D01*
X607568D01*
X605028Y184658D01*
X607568Y187198D01*
X605028D01*
X602488Y189738D01*
X599948Y187198D01*
X597408D01*
X599948Y184658D01*
X597408Y182118D01*
X599948D01*
X602488Y179578D01*
Y241808D02*
X605028Y244348D01*
X607568D01*
X605028Y246888D01*
X607568Y249428D01*
X605028D01*
X602488Y251968D01*
X599948Y249428D01*
X597408D01*
X599948Y246888D01*
X597408Y244348D01*
X599948D01*
X602488Y241808D01*
Y204978D02*
X605028Y207518D01*
X607568D01*
X605028Y210058D01*
X607568Y212598D01*
X605028D01*
X602488Y215138D01*
X599948Y212598D01*
X597408D01*
X599948Y210058D01*
X597408Y207518D01*
X599948D01*
X602488Y204978D01*
Y431038D02*
X605028Y433578D01*
X607568D01*
X605028Y436118D01*
X607568Y438658D01*
X605028D01*
X602488Y441198D01*
X599948Y438658D01*
X597408D01*
X599948Y436118D01*
X597408Y433578D01*
X599948D01*
X602488Y431038D01*
Y419608D02*
X605028Y422148D01*
X607568D01*
X605028Y424688D01*
X607568Y427228D01*
X605028D01*
X602488Y429768D01*
X599948Y427228D01*
X597408D01*
X599948Y424688D01*
X597408Y422148D01*
X599948D01*
X602488Y419608D01*
Y406908D02*
X605028Y409448D01*
X607568D01*
X605028Y411988D01*
X607568Y414528D01*
X605028D01*
X602488Y417068D01*
X599948Y414528D01*
X597408D01*
X599948Y411988D01*
X597408Y409448D01*
X599948D01*
X602488Y406908D01*
Y394208D02*
X605028Y396748D01*
X607568D01*
X605028Y399288D01*
X607568Y401828D01*
X605028D01*
X602488Y404368D01*
X599948Y401828D01*
X597408D01*
X599948Y399288D01*
X597408Y396748D01*
X599948D01*
X602488Y394208D01*
Y381508D02*
X605028Y384048D01*
X607568D01*
X605028Y386588D01*
X607568Y389128D01*
X605028D01*
X602488Y391668D01*
X599948Y389128D01*
X597408D01*
X599948Y386588D01*
X597408Y384048D01*
X599948D01*
X602488Y381508D01*
Y368808D02*
X605028Y371348D01*
X607568D01*
X605028Y373888D01*
X607568Y376428D01*
X605028D01*
X602488Y378968D01*
X599948Y376428D01*
X597408D01*
X599948Y373888D01*
X597408Y371348D01*
X599948D01*
X602488Y368808D01*
Y356108D02*
X605028Y358648D01*
X607568D01*
X605028Y361188D01*
X607568Y363728D01*
X605028D01*
X602488Y366268D01*
X599948Y363728D01*
X597408D01*
X599948Y361188D01*
X597408Y358648D01*
X599948D01*
X602488Y356108D01*
Y217678D02*
X605028Y220218D01*
X607568D01*
X605028Y222758D01*
X607568Y225298D01*
X605028D01*
X602488Y227838D01*
X599948Y225298D01*
X597408D01*
X599948Y222758D01*
X597408Y220218D01*
X599948D01*
X602488Y217678D01*
D34*
X145288Y147828D02*
G03*
X145288Y147828I-5080J0D01*
G01*
X216408Y91948D02*
G03*
X216408Y91948I-5080J0D01*
G01*
X215138Y144018D02*
G03*
X215138Y144018I-5080J0D01*
G01*
M02*
