G04*
G04 #@! TF.GenerationSoftware,Altium Limited,Altium Designer,23.0.1 (38)*
G04*
G04 Layer_Color=65535*
%FSLAX44Y44*%
%MOMM*%
G71*
G04*
G04 #@! TF.SameCoordinates,64DEC9DB-233E-40C6-88A2-80678BC6FC1E*
G04*
G04*
G04 #@! TF.FilePolarity,Positive*
G04*
G01*
G75*
%ADD10C,0.2000*%
%ADD11C,0.1270*%
%ADD12C,0.4000*%
%ADD13C,0.2540*%
G36*
X64922Y69537D02*
X65177D01*
Y69409D01*
X65433D01*
Y69282D01*
X65688D01*
Y69154D01*
X65815D01*
Y69026D01*
X65943D01*
Y68899D01*
X66070D01*
Y68771D01*
X66198D01*
Y68644D01*
X66325D01*
Y68389D01*
X66453D01*
Y68261D01*
X66580D01*
Y68006D01*
X66708D01*
Y67751D01*
X66835D01*
Y67496D01*
X66963D01*
Y67113D01*
X67091D01*
Y66731D01*
X67218D01*
Y66093D01*
X67346D01*
Y64818D01*
X67473D01*
Y63670D01*
X67346D01*
Y62522D01*
X67218D01*
Y61884D01*
X67091D01*
Y61374D01*
X66963D01*
Y60991D01*
X66835D01*
Y60609D01*
X66708D01*
Y60354D01*
X66580D01*
Y60099D01*
X66453D01*
Y59844D01*
X66325D01*
Y59588D01*
X66198D01*
Y59461D01*
X66070D01*
Y59206D01*
X65943D01*
Y59078D01*
X65815D01*
Y58951D01*
X65688D01*
Y58823D01*
X65560D01*
Y58696D01*
X65433D01*
Y58568D01*
X65305D01*
Y58440D01*
X65177D01*
Y58313D01*
X65050D01*
Y58186D01*
X64795D01*
Y58058D01*
X64540D01*
Y57930D01*
X64030D01*
Y57803D01*
X63392D01*
Y57930D01*
X62882D01*
Y58058D01*
X62627D01*
Y58186D01*
X62499D01*
Y58313D01*
X62372D01*
Y58440D01*
X62116D01*
Y58568D01*
X61989D01*
Y58696D01*
X61861D01*
Y58951D01*
X61734D01*
Y59078D01*
X61606D01*
Y59206D01*
X61479D01*
Y59461D01*
X61351D01*
Y59716D01*
X61224D01*
Y59971D01*
X61096D01*
Y60226D01*
X60969D01*
Y60609D01*
X60841D01*
Y60991D01*
X60714D01*
Y61501D01*
X60586D01*
Y62394D01*
X60458D01*
Y64307D01*
X60586D01*
Y65073D01*
X60714D01*
Y65710D01*
X60841D01*
Y66220D01*
X60969D01*
Y66476D01*
X61096D01*
Y66858D01*
X61224D01*
Y67113D01*
X61351D01*
Y67368D01*
X61479D01*
Y67624D01*
X61606D01*
Y67878D01*
X61734D01*
Y68006D01*
X61861D01*
Y68261D01*
X61989D01*
Y68389D01*
X62116D01*
Y68516D01*
X62244D01*
Y68644D01*
X62372D01*
Y68771D01*
X62499D01*
Y68899D01*
X62627D01*
Y69026D01*
X62754D01*
Y69154D01*
X62882D01*
Y69282D01*
X63137D01*
Y69409D01*
X63392D01*
Y69537D01*
X63647D01*
Y69664D01*
X64922D01*
Y69537D01*
D02*
G37*
G36*
X64795Y51298D02*
X65177D01*
Y51171D01*
X65433D01*
Y51043D01*
X65560D01*
Y50916D01*
X65815D01*
Y50788D01*
X65943D01*
Y50661D01*
X66070D01*
Y50533D01*
X66198D01*
Y50278D01*
X66325D01*
Y50150D01*
X66453D01*
Y49895D01*
X66580D01*
Y49768D01*
X66708D01*
Y49513D01*
X66835D01*
Y49258D01*
X66963D01*
Y48875D01*
X67091D01*
Y48365D01*
X67218D01*
Y47727D01*
X67346D01*
Y46579D01*
X67473D01*
Y45431D01*
X67346D01*
Y44284D01*
X67218D01*
Y43646D01*
X67091D01*
Y43136D01*
X66963D01*
Y42753D01*
X66835D01*
Y42371D01*
X66708D01*
Y42115D01*
X66580D01*
Y41860D01*
X66453D01*
Y41605D01*
X66325D01*
Y41350D01*
X66198D01*
Y41223D01*
X66070D01*
Y40967D01*
X65943D01*
Y40840D01*
X65815D01*
Y40712D01*
X65688D01*
Y40457D01*
X65560D01*
Y40330D01*
X65305D01*
Y40202D01*
X65177D01*
Y40075D01*
X65050D01*
Y39947D01*
X64795D01*
Y39820D01*
X64540D01*
Y39692D01*
X64157D01*
Y39565D01*
X63264D01*
Y39692D01*
X62882D01*
Y39820D01*
X62627D01*
Y39947D01*
X62499D01*
Y40075D01*
X62244D01*
Y40202D01*
X62116D01*
Y40330D01*
X61989D01*
Y40457D01*
X61861D01*
Y40585D01*
X61734D01*
Y40840D01*
X61606D01*
Y40967D01*
X61479D01*
Y41223D01*
X61351D01*
Y41478D01*
X61224D01*
Y41733D01*
X61096D01*
Y41988D01*
X60969D01*
Y42371D01*
X60841D01*
Y42753D01*
X60714D01*
Y43263D01*
X60586D01*
Y44156D01*
X60458D01*
Y45942D01*
X60586D01*
Y46834D01*
X60714D01*
Y47472D01*
X60841D01*
Y47855D01*
X60969D01*
Y48237D01*
X61096D01*
Y48620D01*
X61224D01*
Y48875D01*
X61351D01*
Y49130D01*
X61479D01*
Y49385D01*
X61606D01*
Y49513D01*
X61734D01*
Y49768D01*
X61861D01*
Y49895D01*
X61989D01*
Y50150D01*
X62116D01*
Y50278D01*
X62244D01*
Y50406D01*
X62372D01*
Y50533D01*
X62499D01*
Y50661D01*
X62627D01*
Y50788D01*
X62754D01*
Y50916D01*
X63009D01*
Y51043D01*
X63137D01*
Y51171D01*
X63392D01*
Y51298D01*
X63774D01*
Y51426D01*
X64795D01*
Y51298D01*
D02*
G37*
G36*
X64667Y33060D02*
X65050D01*
Y32933D01*
X65305D01*
Y32805D01*
X65560D01*
Y32677D01*
X65688D01*
Y32550D01*
X65815D01*
Y32422D01*
X65943D01*
Y32295D01*
X66070D01*
Y32167D01*
X66198D01*
Y32040D01*
X66325D01*
Y31785D01*
X66453D01*
Y31657D01*
X66580D01*
Y31402D01*
X66708D01*
Y31147D01*
X66835D01*
Y30764D01*
X66963D01*
Y30382D01*
X67091D01*
Y29999D01*
X67218D01*
Y29361D01*
X67346D01*
Y28214D01*
X67473D01*
Y27193D01*
X67346D01*
Y26045D01*
X67218D01*
Y25408D01*
X67091D01*
Y24897D01*
X66963D01*
Y24515D01*
X66835D01*
Y24132D01*
X66708D01*
Y23877D01*
X66580D01*
Y23622D01*
X66453D01*
Y23367D01*
X66325D01*
Y23112D01*
X66198D01*
Y22857D01*
X66070D01*
Y22729D01*
X65943D01*
Y22602D01*
X65815D01*
Y22347D01*
X65688D01*
Y22219D01*
X65560D01*
Y22092D01*
X65433D01*
Y21964D01*
X65305D01*
Y21837D01*
X65050D01*
Y21709D01*
X64922D01*
Y21581D01*
X64667D01*
Y21454D01*
X64285D01*
Y21326D01*
X63137D01*
Y21454D01*
X62754D01*
Y21581D01*
X62627D01*
Y21709D01*
X62372D01*
Y21837D01*
X62244D01*
Y21964D01*
X62116D01*
Y22092D01*
X61989D01*
Y22219D01*
X61861D01*
Y22347D01*
X61734D01*
Y22602D01*
X61606D01*
Y22729D01*
X61479D01*
Y22984D01*
X61351D01*
Y23112D01*
X61224D01*
Y23367D01*
X61096D01*
Y23750D01*
X60969D01*
Y24005D01*
X60841D01*
Y24515D01*
X60714D01*
Y24897D01*
Y25025D01*
X60586D01*
Y25790D01*
X60458D01*
Y27703D01*
X60586D01*
Y28596D01*
X60714D01*
Y29106D01*
X60841D01*
Y29616D01*
X60969D01*
Y29999D01*
X61096D01*
Y30254D01*
X61224D01*
Y30637D01*
X61351D01*
Y30892D01*
X61479D01*
Y31147D01*
X61606D01*
Y31274D01*
X61734D01*
Y31530D01*
X61861D01*
Y31657D01*
X61989D01*
Y31785D01*
X62116D01*
Y32040D01*
X62244D01*
Y32167D01*
X62372D01*
Y32295D01*
X62499D01*
Y32422D01*
X62627D01*
Y32550D01*
X62882D01*
Y32677D01*
X63009D01*
Y32805D01*
X63264D01*
Y32933D01*
X63519D01*
Y33060D01*
X63902D01*
Y33187D01*
X64667D01*
Y33060D01*
D02*
G37*
G36*
X55357Y13929D02*
X55229D01*
Y14057D01*
X54719D01*
Y14184D01*
X54209D01*
Y14312D01*
X53699D01*
Y14439D01*
X53061D01*
Y14567D01*
X52551D01*
Y14694D01*
X52041D01*
Y14822D01*
X51531D01*
Y14949D01*
X51020D01*
Y15077D01*
X50510D01*
Y15204D01*
X50000D01*
Y15332D01*
X49490D01*
Y15459D01*
X48980D01*
Y15587D01*
X48342D01*
Y15714D01*
X47832D01*
Y15842D01*
X47322D01*
Y15970D01*
X46812D01*
Y16097D01*
X46301D01*
Y16225D01*
X45791D01*
Y16352D01*
X45281D01*
Y16480D01*
X44644D01*
Y16607D01*
X44133D01*
Y16735D01*
X43623D01*
Y16862D01*
X43113D01*
Y16990D01*
X42603D01*
Y17117D01*
X42093D01*
Y17245D01*
X41582D01*
Y17372D01*
X40945D01*
Y17500D01*
X40435D01*
Y17628D01*
X39924D01*
Y17755D01*
X39414D01*
Y17883D01*
X38904D01*
Y18010D01*
X38394D01*
Y18138D01*
X37884D01*
Y18265D01*
X37374D01*
Y18393D01*
X36864D01*
Y18520D01*
X36353D01*
Y18648D01*
X35716D01*
Y18776D01*
X35206D01*
Y18903D01*
X34695D01*
Y19030D01*
X34185D01*
Y19158D01*
X33675D01*
Y19286D01*
X33165D01*
Y19413D01*
X32655D01*
Y19541D01*
X32144D01*
Y19668D01*
X31507D01*
Y19796D01*
X30997D01*
Y19923D01*
X30487D01*
Y20051D01*
X29976D01*
Y20178D01*
X29466D01*
Y20306D01*
X28956D01*
Y20433D01*
X28446D01*
Y20561D01*
X27936D01*
Y20689D01*
X27425D01*
Y20816D01*
X26915D01*
Y20944D01*
X26278D01*
Y21071D01*
X25768D01*
Y21199D01*
X25257D01*
Y21326D01*
X24747D01*
Y21454D01*
X24237D01*
Y21581D01*
X23727D01*
Y21709D01*
X23217D01*
Y21837D01*
X22579D01*
Y21964D01*
X22069D01*
Y22092D01*
X21559D01*
Y22219D01*
X21049D01*
Y22347D01*
X20538D01*
Y22474D01*
X20028D01*
Y22602D01*
X19518D01*
Y22729D01*
X19008D01*
Y22857D01*
X18498D01*
Y22984D01*
X17988D01*
Y23112D01*
X17350D01*
Y23239D01*
X16840D01*
Y23367D01*
X16329D01*
Y23495D01*
X15819D01*
Y23622D01*
X15309D01*
Y23750D01*
X14799D01*
Y23877D01*
X14289D01*
Y24005D01*
X13779D01*
Y24132D01*
X13651D01*
Y66986D01*
X13779D01*
Y67113D01*
X14289D01*
Y67241D01*
X14799D01*
Y67368D01*
X15309D01*
Y67496D01*
X15819D01*
Y67624D01*
X16457D01*
Y67751D01*
X16967D01*
Y67878D01*
X17477D01*
Y68006D01*
X17988D01*
Y68134D01*
X18498D01*
Y68261D01*
X19008D01*
Y68389D01*
X19518D01*
Y68516D01*
X20028D01*
Y68644D01*
X20538D01*
Y68771D01*
X21049D01*
Y68899D01*
X21686D01*
Y69026D01*
X22196D01*
Y69154D01*
X22706D01*
Y69282D01*
X23217D01*
Y69409D01*
X23727D01*
Y69537D01*
X24237D01*
Y69664D01*
X24747D01*
Y69792D01*
X25257D01*
Y69919D01*
X25768D01*
Y70047D01*
X26405D01*
Y70174D01*
X26915D01*
Y70302D01*
X27425D01*
Y70429D01*
X27936D01*
Y70557D01*
X28446D01*
Y70684D01*
X28956D01*
Y70812D01*
X29466D01*
Y70939D01*
X29976D01*
Y71067D01*
X30614D01*
Y71195D01*
X31124D01*
Y71322D01*
X31634D01*
Y71450D01*
X32144D01*
Y71577D01*
X32655D01*
Y71705D01*
X33165D01*
Y71832D01*
X33675D01*
Y71960D01*
X34185D01*
Y72087D01*
X34695D01*
Y72215D01*
X35333D01*
Y72343D01*
X35843D01*
Y72470D01*
X36353D01*
Y72597D01*
X36864D01*
Y72725D01*
X37374D01*
Y72853D01*
X37884D01*
Y72980D01*
X38394D01*
Y73108D01*
X38904D01*
Y73235D01*
X39542D01*
Y73363D01*
X40052D01*
Y73490D01*
X40562D01*
Y73618D01*
X41072D01*
Y73745D01*
X41582D01*
Y73873D01*
X42093D01*
Y74001D01*
X42603D01*
Y74128D01*
X43113D01*
Y74256D01*
X43751D01*
Y74383D01*
X44261D01*
Y74511D01*
X44771D01*
Y74638D01*
X45281D01*
Y74766D01*
X45791D01*
Y74893D01*
X46301D01*
Y75021D01*
X46812D01*
Y75148D01*
X47322D01*
Y75276D01*
X47832D01*
Y75403D01*
X48470D01*
Y75531D01*
X48980D01*
Y75658D01*
X49490D01*
Y75786D01*
X50000D01*
Y75914D01*
X50510D01*
Y76041D01*
X51020D01*
Y76169D01*
X51531D01*
Y76296D01*
X52041D01*
Y76424D01*
X52678D01*
Y76551D01*
X53189D01*
Y76679D01*
X53699D01*
Y76806D01*
X54209D01*
Y76934D01*
X54719D01*
Y77061D01*
X55229D01*
Y77189D01*
X55357D01*
Y13929D01*
D02*
G37*
G36*
X57270Y77316D02*
X57525D01*
Y77189D01*
X57908D01*
Y77061D01*
X58163D01*
Y76934D01*
X58545D01*
Y76806D01*
X58800D01*
Y76679D01*
X59056D01*
Y76551D01*
X59438D01*
Y76424D01*
X59693D01*
Y76296D01*
X60076D01*
Y76169D01*
X60331D01*
Y76041D01*
X60586D01*
Y75914D01*
X60969D01*
Y75786D01*
X61224D01*
Y75658D01*
X61479D01*
Y75531D01*
X61861D01*
Y75403D01*
X62116D01*
Y75276D01*
X62372D01*
Y75148D01*
X62754D01*
Y75021D01*
X63009D01*
Y74893D01*
X63392D01*
Y74766D01*
X63647D01*
Y74638D01*
X64030D01*
Y71067D01*
X63647D01*
Y70939D01*
X63137D01*
Y70812D01*
X62754D01*
Y70684D01*
X62499D01*
Y70557D01*
X62372D01*
Y70429D01*
X62116D01*
Y70302D01*
X61989D01*
Y70174D01*
X61861D01*
Y70047D01*
X61734D01*
Y69919D01*
X61606D01*
Y69792D01*
X61479D01*
Y69664D01*
X61351D01*
Y69537D01*
X61224D01*
Y69409D01*
X61096D01*
Y69282D01*
X60969D01*
Y69154D01*
X60841D01*
Y69026D01*
X60714D01*
Y68771D01*
X60586D01*
Y68516D01*
X60458D01*
Y68389D01*
X60331D01*
Y68134D01*
X60203D01*
Y67878D01*
X60076D01*
Y67624D01*
X59948D01*
Y67368D01*
X59821D01*
Y66986D01*
X59693D01*
Y66603D01*
X59566D01*
Y66220D01*
X59438D01*
Y65710D01*
X59311D01*
Y65073D01*
X59183D01*
Y63925D01*
X59056D01*
Y62649D01*
X59183D01*
Y61629D01*
X59311D01*
Y60991D01*
X59438D01*
Y60481D01*
X59566D01*
Y60099D01*
X59693D01*
Y59716D01*
X59821D01*
Y59461D01*
X59948D01*
Y59206D01*
X60076D01*
Y58951D01*
X60203D01*
Y58696D01*
X60331D01*
Y58568D01*
X60458D01*
Y58313D01*
X60586D01*
Y58186D01*
X60714D01*
Y57930D01*
X60841D01*
Y57803D01*
X60969D01*
Y57675D01*
X61096D01*
Y57548D01*
X61224D01*
Y57420D01*
X61351D01*
Y57293D01*
X61606D01*
Y57165D01*
X61734D01*
Y57038D01*
X61861D01*
Y56910D01*
X62116D01*
Y56782D01*
X62372D01*
Y56655D01*
X62754D01*
Y56527D01*
X63647D01*
Y56400D01*
X63774D01*
Y56527D01*
X64030D01*
Y52829D01*
X63774D01*
Y52701D01*
X63264D01*
Y52574D01*
X62882D01*
Y52446D01*
X62627D01*
Y52319D01*
X62372D01*
Y52191D01*
X62244D01*
Y52063D01*
X61989D01*
Y51936D01*
X61861D01*
Y51809D01*
X61734D01*
Y51681D01*
X61606D01*
Y51553D01*
X61479D01*
Y51426D01*
X61351D01*
Y51298D01*
X61224D01*
Y51171D01*
X61096D01*
Y51043D01*
X60969D01*
Y50916D01*
X60841D01*
Y50661D01*
X60714D01*
Y50533D01*
X60586D01*
Y50278D01*
X60458D01*
Y50150D01*
X60331D01*
Y49895D01*
X60203D01*
Y49640D01*
X60076D01*
Y49385D01*
X59948D01*
Y49002D01*
X59821D01*
Y48748D01*
X59693D01*
Y48365D01*
X59566D01*
Y47982D01*
X59438D01*
Y47472D01*
X59311D01*
Y46834D01*
X59183D01*
Y45686D01*
X59056D01*
Y44411D01*
X59183D01*
Y43263D01*
X59311D01*
Y42625D01*
X59438D01*
Y42243D01*
X59566D01*
Y41860D01*
X59693D01*
Y41478D01*
X59821D01*
Y41223D01*
X59948D01*
Y40967D01*
X60076D01*
Y40712D01*
X60203D01*
Y40457D01*
X60331D01*
Y40202D01*
X60458D01*
Y40075D01*
X60586D01*
Y39820D01*
X60714D01*
Y39692D01*
X60841D01*
Y39565D01*
X60969D01*
Y39437D01*
X61096D01*
Y39309D01*
X61224D01*
Y39182D01*
X61351D01*
Y39054D01*
X61479D01*
Y38927D01*
X61734D01*
Y38799D01*
X61861D01*
Y38672D01*
X62116D01*
Y38544D01*
X62372D01*
Y38417D01*
X62627D01*
Y38289D01*
X63264D01*
Y38162D01*
X64030D01*
Y34463D01*
X63264D01*
Y34335D01*
X63009D01*
Y34208D01*
X62627D01*
Y34080D01*
X62372D01*
Y33953D01*
X62244D01*
Y33825D01*
X62116D01*
Y33698D01*
X61861D01*
Y33570D01*
X61734D01*
Y33443D01*
X61606D01*
Y33315D01*
X61479D01*
Y33187D01*
X61351D01*
Y33060D01*
X61224D01*
Y32933D01*
X61096D01*
Y32805D01*
X60969D01*
Y32550D01*
X60841D01*
Y32422D01*
X60714D01*
Y32295D01*
X60586D01*
Y32040D01*
X60458D01*
Y31785D01*
X60331D01*
Y31657D01*
X60203D01*
Y31402D01*
X60076D01*
Y31147D01*
X59948D01*
Y30764D01*
X59821D01*
Y30509D01*
X59693D01*
Y30127D01*
X59566D01*
Y29744D01*
X59438D01*
Y29234D01*
X59311D01*
Y28596D01*
X59183D01*
Y27448D01*
X59056D01*
Y26173D01*
X59183D01*
Y25025D01*
X59311D01*
Y24387D01*
X59438D01*
Y24005D01*
X59566D01*
Y23495D01*
X59693D01*
Y23239D01*
X59821D01*
Y22984D01*
X59948D01*
Y22602D01*
X60076D01*
Y22474D01*
X60203D01*
Y22219D01*
X60331D01*
Y21964D01*
X60458D01*
Y21837D01*
X60586D01*
Y21581D01*
X60714D01*
Y21454D01*
X60841D01*
Y21326D01*
X60969D01*
Y21199D01*
X61096D01*
Y21071D01*
X61224D01*
Y20944D01*
X61351D01*
Y20816D01*
X61479D01*
Y20689D01*
X61606D01*
Y20561D01*
X61861D01*
Y20433D01*
X61989D01*
Y20306D01*
X62244D01*
Y20178D01*
X62627D01*
Y20051D01*
X63009D01*
Y19923D01*
X64030D01*
Y16352D01*
X63647D01*
Y16225D01*
X63392D01*
Y16097D01*
X63009D01*
Y15970D01*
X62754D01*
Y15842D01*
X62372D01*
Y15714D01*
X62116D01*
Y15587D01*
X61734D01*
Y15459D01*
X61351D01*
Y15332D01*
X61096D01*
Y15204D01*
X60714D01*
Y15077D01*
X60458D01*
Y14949D01*
X60076D01*
Y14822D01*
X59821D01*
Y14694D01*
X59438D01*
Y14567D01*
X59056D01*
Y14439D01*
X58800D01*
Y14312D01*
X58418D01*
Y14184D01*
X58163D01*
Y14057D01*
X57780D01*
Y13929D01*
X57397D01*
Y13801D01*
X57142D01*
Y13674D01*
X57015D01*
Y77444D01*
X57270D01*
Y77316D01*
D02*
G37*
%LPC*%
G36*
X33292Y67751D02*
X33165D01*
Y67624D01*
X33037D01*
Y67368D01*
X32910D01*
Y67113D01*
X32782D01*
Y66858D01*
X32655D01*
Y66603D01*
X32527D01*
Y66348D01*
X32400D01*
Y66220D01*
X32272D01*
Y65965D01*
X32144D01*
Y65710D01*
X32017D01*
Y65455D01*
X31889D01*
Y65200D01*
X31762D01*
Y64945D01*
X31634D01*
Y64690D01*
X31507D01*
Y64435D01*
X31379D01*
Y64307D01*
X31252D01*
Y64052D01*
X31124D01*
Y63797D01*
X30997D01*
Y63542D01*
X30869D01*
Y63287D01*
X30742D01*
Y63032D01*
X30614D01*
Y62777D01*
X30487D01*
Y62522D01*
X30359D01*
Y62394D01*
X30231D01*
Y62139D01*
X30104D01*
Y61884D01*
X29976D01*
Y61629D01*
X29849D01*
Y61374D01*
X29721D01*
Y61119D01*
X29594D01*
Y60864D01*
X29466D01*
Y60736D01*
X29339D01*
Y60481D01*
X29211D01*
Y60226D01*
X29083D01*
Y59971D01*
X28956D01*
Y59716D01*
X28828D01*
Y59461D01*
X28701D01*
Y59206D01*
X28573D01*
Y58951D01*
X28446D01*
Y58823D01*
X28318D01*
Y58568D01*
X28191D01*
Y58440D01*
X27936D01*
Y58568D01*
X27425D01*
Y58696D01*
X27043D01*
Y58823D01*
X26533D01*
Y58951D01*
X26023D01*
Y59078D01*
X25640D01*
Y59206D01*
X25130D01*
Y59333D01*
X24747D01*
Y59461D01*
X24237D01*
Y59588D01*
X23727D01*
Y59206D01*
X23854D01*
Y58823D01*
X23982D01*
Y58313D01*
X24109D01*
Y57803D01*
X24237D01*
Y57420D01*
X24365D01*
Y56910D01*
X24492D01*
Y56400D01*
X24620D01*
Y56017D01*
X24747D01*
Y55507D01*
X24875D01*
Y54997D01*
X25002D01*
Y54614D01*
X25130D01*
Y54104D01*
X25257D01*
Y53594D01*
X25385D01*
Y53211D01*
X25512D01*
Y52701D01*
X25640D01*
Y52191D01*
X25768D01*
Y51809D01*
X25895D01*
Y51298D01*
X26023D01*
Y50788D01*
X26150D01*
Y50406D01*
X26278D01*
Y49895D01*
X26405D01*
Y49385D01*
X26533D01*
Y49002D01*
X26660D01*
Y48492D01*
X26788D01*
Y48110D01*
X26915D01*
Y47600D01*
X27043D01*
Y47217D01*
X26915D01*
Y47344D01*
X26660D01*
Y47472D01*
X26533D01*
Y47600D01*
X26278D01*
Y47727D01*
X26150D01*
Y47855D01*
X25895D01*
Y47982D01*
X25640D01*
Y48110D01*
X25512D01*
Y48237D01*
X25257D01*
Y48365D01*
X25130D01*
Y48492D01*
X24875D01*
Y48620D01*
X24747D01*
Y48748D01*
X24492D01*
Y48875D01*
X24365D01*
Y49002D01*
X24109D01*
Y49130D01*
X23982D01*
Y49258D01*
X23727D01*
Y49385D01*
X23472D01*
Y49513D01*
X23344D01*
Y49640D01*
X23089D01*
Y49768D01*
X22962D01*
Y49895D01*
X22706D01*
Y50023D01*
X22579D01*
Y50150D01*
X22324D01*
Y50278D01*
X22196D01*
Y50406D01*
X21941D01*
Y50533D01*
X21814D01*
Y50661D01*
X21559D01*
Y50788D01*
X21304D01*
Y50916D01*
X21176D01*
Y49895D01*
X21049D01*
Y47344D01*
X20411D01*
Y47217D01*
X19390D01*
Y47089D01*
X18243D01*
Y46962D01*
X17095D01*
Y46834D01*
X16457D01*
Y46707D01*
X16585D01*
Y46579D01*
X16712D01*
Y46324D01*
X16840D01*
Y46197D01*
X16967D01*
Y45942D01*
X17095D01*
Y45814D01*
X17222D01*
Y45559D01*
X17350D01*
Y45304D01*
X17477D01*
Y45176D01*
X17605D01*
Y44921D01*
X17732D01*
Y44794D01*
X17860D01*
Y44539D01*
X17988D01*
Y44284D01*
X18115D01*
Y44156D01*
X18243D01*
Y43901D01*
X18370D01*
Y43773D01*
X18498D01*
Y43518D01*
X18625D01*
Y43263D01*
X18753D01*
Y43136D01*
X18880D01*
Y42881D01*
X19008D01*
Y42753D01*
X19135D01*
Y42498D01*
X19263D01*
Y42371D01*
X19390D01*
Y42115D01*
X19518D01*
Y41860D01*
X19646D01*
Y41733D01*
X19773D01*
Y41478D01*
X19901D01*
Y41350D01*
X19773D01*
Y41223D01*
X19646D01*
Y41095D01*
X19518D01*
Y40967D01*
X19390D01*
Y40840D01*
X19263D01*
Y40712D01*
X19135D01*
Y40585D01*
X19008D01*
Y40457D01*
X18880D01*
Y40330D01*
X18753D01*
Y40202D01*
X18625D01*
Y40075D01*
X18498D01*
Y39947D01*
X18370D01*
Y39692D01*
X18243D01*
Y39565D01*
X18115D01*
Y39437D01*
X17988D01*
Y39309D01*
X17860D01*
Y39182D01*
X17732D01*
Y39054D01*
X17605D01*
Y38927D01*
X17732D01*
Y38799D01*
X18115D01*
Y38672D01*
X18625D01*
Y38544D01*
X19008D01*
Y38417D01*
X19518D01*
Y38289D01*
X19901D01*
Y38162D01*
X20283D01*
Y38034D01*
X20793D01*
Y37906D01*
X21176D01*
Y37779D01*
X21686D01*
Y37652D01*
X22069D01*
Y37524D01*
X22451D01*
Y37396D01*
X22962D01*
Y37269D01*
X23344D01*
Y37141D01*
X23854D01*
Y37014D01*
X24237D01*
Y36886D01*
X24620D01*
Y36759D01*
X25130D01*
Y36631D01*
X25512D01*
Y36504D01*
X25895D01*
Y36376D01*
X26150D01*
Y36121D01*
X26023D01*
Y35738D01*
X25895D01*
Y35483D01*
X25768D01*
Y35228D01*
X25640D01*
Y34973D01*
X25512D01*
Y34718D01*
X25385D01*
Y34463D01*
X25257D01*
Y34208D01*
X25130D01*
Y33825D01*
X25002D01*
Y33570D01*
X24875D01*
Y33315D01*
X24747D01*
Y33060D01*
X24620D01*
Y32805D01*
X24492D01*
Y32550D01*
X24365D01*
Y32295D01*
X25895D01*
Y32167D01*
X31762D01*
Y31402D01*
X31634D01*
Y30254D01*
X31507D01*
Y29106D01*
X31379D01*
Y27831D01*
X31252D01*
Y26683D01*
X31124D01*
Y25535D01*
X30997D01*
Y24260D01*
X30869D01*
Y23877D01*
X31507D01*
Y23750D01*
X32272D01*
Y23622D01*
X32910D01*
Y23495D01*
X33675D01*
Y23367D01*
X34313D01*
Y25152D01*
X34185D01*
Y27448D01*
X34058D01*
Y29744D01*
X33930D01*
Y32040D01*
X34058D01*
Y31912D01*
X34695D01*
Y31785D01*
X35333D01*
Y31657D01*
X36098D01*
Y31530D01*
X36736D01*
Y31402D01*
X37501D01*
Y31274D01*
X38139D01*
Y31147D01*
X38904D01*
Y31019D01*
X39542D01*
Y30892D01*
X40307D01*
Y30764D01*
X40945D01*
Y30637D01*
X41710D01*
Y30509D01*
X42093D01*
Y30637D01*
X41965D01*
Y30892D01*
X41838D01*
Y31147D01*
X41710D01*
Y31402D01*
X41582D01*
Y31657D01*
X41455D01*
Y31912D01*
X41327D01*
Y32167D01*
X41200D01*
Y32422D01*
X41072D01*
Y32677D01*
X40945D01*
Y32933D01*
X40817D01*
Y33187D01*
X40690D01*
Y33443D01*
X40562D01*
Y33698D01*
X40435D01*
Y33953D01*
X40307D01*
Y34208D01*
X40180D01*
Y34463D01*
X40052D01*
Y34718D01*
X40307D01*
Y34846D01*
X41072D01*
Y34973D01*
X41710D01*
Y35101D01*
X42348D01*
Y35228D01*
X42985D01*
Y35356D01*
X43751D01*
Y35483D01*
X44388D01*
Y35611D01*
X45026D01*
Y35738D01*
X45664D01*
Y35866D01*
X46301D01*
Y35993D01*
X47067D01*
Y36121D01*
X47704D01*
Y36249D01*
X48342D01*
Y36376D01*
X48980D01*
Y36504D01*
X49745D01*
Y36631D01*
X50383D01*
Y36759D01*
X50765D01*
Y36886D01*
X50638D01*
Y37141D01*
X50510D01*
Y37269D01*
X50383D01*
Y37396D01*
X50255D01*
Y37524D01*
X50128D01*
Y37652D01*
X50000D01*
Y37779D01*
X49873D01*
Y37906D01*
X49745D01*
Y38034D01*
X49618D01*
Y38162D01*
X49490D01*
Y38289D01*
X49363D01*
Y38417D01*
X49235D01*
Y38544D01*
X49107D01*
Y38672D01*
X48980D01*
Y38799D01*
X48852D01*
Y38927D01*
X48725D01*
Y39182D01*
X48597D01*
Y39309D01*
X48470D01*
Y39437D01*
X48342D01*
Y39565D01*
X48215D01*
Y39692D01*
X48087D01*
Y39820D01*
X47959D01*
Y39947D01*
X47832D01*
Y40330D01*
X47959D01*
Y40457D01*
X48087D01*
Y40585D01*
X48215D01*
Y40840D01*
X48342D01*
Y40967D01*
X48470D01*
Y41223D01*
X48597D01*
Y41350D01*
X48725D01*
Y41478D01*
X48852D01*
Y41733D01*
X48980D01*
Y41860D01*
X49107D01*
Y41988D01*
X49235D01*
Y42243D01*
X49363D01*
Y42371D01*
X49490D01*
Y42625D01*
X49618D01*
Y42753D01*
X49745D01*
Y42881D01*
X49873D01*
Y43136D01*
X50000D01*
Y43263D01*
X50128D01*
Y43518D01*
X50255D01*
Y43646D01*
X50383D01*
Y43773D01*
X50510D01*
Y44029D01*
X50638D01*
Y44156D01*
X50765D01*
Y44284D01*
X50893D01*
Y44539D01*
X51020D01*
Y44666D01*
X51148D01*
Y44921D01*
X51276D01*
Y45049D01*
X51403D01*
Y45176D01*
X51531D01*
Y45431D01*
X51658D01*
Y45559D01*
X51786D01*
Y45686D01*
X51913D01*
Y45942D01*
X52041D01*
Y46069D01*
X52168D01*
Y46324D01*
X51913D01*
Y46452D01*
X50383D01*
Y46579D01*
X48852D01*
Y46707D01*
X47194D01*
Y46834D01*
X45919D01*
Y48748D01*
X46046D01*
Y51043D01*
X45919D01*
Y50916D01*
X45791D01*
Y50788D01*
X45536D01*
Y50661D01*
X45281D01*
Y50533D01*
X45026D01*
Y50406D01*
X44899D01*
Y50278D01*
X44644D01*
Y50150D01*
X44388D01*
Y50023D01*
X44133D01*
Y49895D01*
X44006D01*
Y49768D01*
X43751D01*
Y49640D01*
X43496D01*
Y49513D01*
X43240D01*
Y49385D01*
X43113D01*
Y49258D01*
X42858D01*
Y49130D01*
X42603D01*
Y49002D01*
X42475D01*
Y48875D01*
X42220D01*
Y48748D01*
X41965D01*
Y48620D01*
X41710D01*
Y48492D01*
X41455D01*
Y48365D01*
X41327D01*
Y48237D01*
X41072D01*
Y48110D01*
X40817D01*
Y47982D01*
X40562D01*
Y47855D01*
X40435D01*
Y47727D01*
X40180D01*
Y47600D01*
X39924D01*
Y47472D01*
X39669D01*
Y47344D01*
X39542D01*
Y47217D01*
X39287D01*
Y47089D01*
X39032D01*
Y47344D01*
X39159D01*
Y47855D01*
X39287D01*
Y48237D01*
X39414D01*
Y48748D01*
X39542D01*
Y49130D01*
X39669D01*
Y49513D01*
X39797D01*
Y50023D01*
X39924D01*
Y50406D01*
X40052D01*
Y50916D01*
X40180D01*
Y51298D01*
X40307D01*
Y51809D01*
X40435D01*
Y52191D01*
X40562D01*
Y52701D01*
X40690D01*
Y53084D01*
X40817D01*
Y53594D01*
X40945D01*
Y53977D01*
X41072D01*
Y54487D01*
X41200D01*
Y54869D01*
X41327D01*
Y55252D01*
X41455D01*
Y55762D01*
X41582D01*
Y56145D01*
X41710D01*
Y56655D01*
X41838D01*
Y57038D01*
X41965D01*
Y57548D01*
X42093D01*
Y57930D01*
X42220D01*
Y58440D01*
X42348D01*
Y58823D01*
X42475D01*
Y59206D01*
X42603D01*
Y59716D01*
X42730D01*
Y59844D01*
X42475D01*
Y59716D01*
X42093D01*
Y59588D01*
X41710D01*
Y59461D01*
X41327D01*
Y59333D01*
X40945D01*
Y59206D01*
X40562D01*
Y59078D01*
X40180D01*
Y58951D01*
X39924D01*
Y58823D01*
X39542D01*
Y58696D01*
X39159D01*
Y58568D01*
X38777D01*
Y58440D01*
X38394D01*
Y58313D01*
X38011D01*
Y58186D01*
X37501D01*
Y58440D01*
X37374D01*
Y58696D01*
X37246D01*
Y59078D01*
X37119D01*
Y59333D01*
X36991D01*
Y59588D01*
X36864D01*
Y59844D01*
X36736D01*
Y60099D01*
X36608D01*
Y60481D01*
X36481D01*
Y60736D01*
X36353D01*
Y60991D01*
X36226D01*
Y61246D01*
X36098D01*
Y61629D01*
X35971D01*
Y61884D01*
X35843D01*
Y62139D01*
X35716D01*
Y62394D01*
X35588D01*
Y62777D01*
X35461D01*
Y63032D01*
X35333D01*
Y63287D01*
X35206D01*
Y63542D01*
X35078D01*
Y63925D01*
X34950D01*
Y64180D01*
X34823D01*
Y64435D01*
X34695D01*
Y64690D01*
X34568D01*
Y64945D01*
X34440D01*
Y65328D01*
X34313D01*
Y65583D01*
X34185D01*
Y65838D01*
X34058D01*
Y66093D01*
X33930D01*
Y66476D01*
X33802D01*
Y66731D01*
X33675D01*
Y66986D01*
X33547D01*
Y67241D01*
X33420D01*
Y67624D01*
X33292D01*
Y67751D01*
D02*
G37*
%LPD*%
D10*
X171878Y509778D02*
G03*
X171878Y509778I-1000J0D01*
G01*
X491918Y27178D02*
G03*
X491918Y27178I-1000J0D01*
G01*
X263318D02*
G03*
X263318Y27178I-1000J0D01*
G01*
X441118Y509778D02*
G03*
X441118Y509778I-1000J0D01*
G01*
X208605Y151404D02*
G03*
X208605Y151404I-1000J0D01*
G01*
X436128Y497728D02*
Y521828D01*
X177028D02*
X436128D01*
X177028Y497728D02*
Y521828D01*
Y497728D02*
X436128D01*
X654568Y15128D02*
Y39228D01*
X497068D02*
X654568D01*
X497068Y15128D02*
Y39228D01*
Y15128D02*
X654568D01*
X476768D02*
Y39228D01*
X268468D02*
X476768D01*
X268468Y15128D02*
Y39228D01*
Y15128D02*
X476768D01*
X654568Y497728D02*
Y521828D01*
X446268D02*
X654568D01*
X446268Y497728D02*
Y521828D01*
Y497728D02*
X654568D01*
X393828Y172058D02*
X395578D01*
X344578D02*
X346328D01*
X344578Y121058D02*
Y172058D01*
X393828Y121058D02*
X395578D01*
X344578D02*
X346328D01*
X395578D02*
Y172058D01*
D11*
X277691Y156164D02*
X283691D01*
X277691Y166464D02*
X283691D01*
X203955Y167404D02*
Y183404D01*
X235255Y167404D02*
Y183404D01*
D12*
X590664Y362764D02*
Y432764D01*
X590918Y174042D02*
Y244042D01*
D13*
X109471Y266696D02*
X106931Y269235D01*
X101853D01*
X99314Y266696D01*
Y256539D01*
X101853Y254000D01*
X106931D01*
X109471Y256539D01*
Y261618D01*
X104392D01*
X114549Y254000D02*
Y269235D01*
X124706Y254000D01*
Y269235D01*
X129784D02*
Y254000D01*
X137402D01*
X139941Y256539D01*
Y266696D01*
X137402Y269235D01*
X129784D01*
X99314Y326898D02*
Y342133D01*
X106931D01*
X109471Y339594D01*
Y334515D01*
X106931Y331976D01*
X99314D01*
X114549Y342133D02*
Y326898D01*
X119627Y331976D01*
X124706Y326898D01*
Y342133D01*
X129784Y326898D02*
Y342133D01*
X137402D01*
X139941Y339594D01*
Y334515D01*
X137402Y331976D01*
X129784D01*
X134862D02*
X139941Y326898D01*
X277032Y128780D02*
Y138936D01*
X282110D01*
X283803Y137244D01*
Y133858D01*
X282110Y132165D01*
X277032D01*
X280418D02*
X283803Y128780D01*
X293960D02*
X287189D01*
X293960Y135551D01*
Y137244D01*
X292267Y138936D01*
X288882D01*
X287189Y137244D01*
X231227Y146556D02*
Y138092D01*
X232920Y136400D01*
X236305D01*
X237998Y138092D01*
Y146556D01*
X241384Y136400D02*
X244769D01*
X243076D01*
Y146556D01*
X241384Y144864D01*
X277455Y199646D02*
Y209802D01*
X282533D01*
X284226Y208110D01*
Y204724D01*
X282533Y203031D01*
X277455D01*
X280840D02*
X284226Y199646D01*
X287612D02*
X290997D01*
X289304D01*
Y209802D01*
X287612Y208110D01*
X345186Y191767D02*
Y181610D01*
X351957D01*
X355343D02*
X358728D01*
X357035D01*
Y191767D01*
X355343Y190074D01*
X642451Y490980D02*
X639066D01*
X640758D01*
Y482516D01*
X639066Y480824D01*
X637373D01*
X635680Y482516D01*
X650915Y480824D02*
Y490980D01*
X645837Y485902D01*
X652608D01*
X243925Y32256D02*
X240540D01*
X242232D01*
Y23792D01*
X240540Y22100D01*
X238847D01*
X237154Y23792D01*
X247311Y30564D02*
X249004Y32256D01*
X252389D01*
X254082Y30564D01*
Y28871D01*
X252389Y27178D01*
X250696D01*
X252389D01*
X254082Y25485D01*
Y23792D01*
X252389Y22100D01*
X249004D01*
X247311Y23792D01*
X668867Y53846D02*
X665482D01*
X667174D01*
Y45382D01*
X665482Y43690D01*
X663789D01*
X662096Y45382D01*
X679024Y43690D02*
X672253D01*
X679024Y50461D01*
Y52154D01*
X677331Y53846D01*
X673946D01*
X672253Y52154D01*
X145542Y514602D02*
X142156D01*
X143849D01*
Y506138D01*
X142156Y504446D01*
X140464D01*
X138771Y506138D01*
X148928Y504446D02*
X152313D01*
X150620D01*
Y514602D01*
X148928Y512910D01*
X560750Y150112D02*
Y139956D01*
X565828D01*
X567521Y141648D01*
Y148420D01*
X565828Y150112D01*
X560750D01*
X577678Y139956D02*
X570907D01*
X577678Y146727D01*
Y148420D01*
X575985Y150112D01*
X572600D01*
X570907Y148420D01*
X560750Y474216D02*
Y464060D01*
X565828D01*
X567521Y465752D01*
Y472524D01*
X565828Y474216D01*
X560750D01*
X570907Y464060D02*
X574292D01*
X572600D01*
Y474216D01*
X570907Y472524D01*
X116925Y206332D02*
X115232Y208024D01*
X111847D01*
X110154Y206332D01*
Y199560D01*
X111847Y197868D01*
X115232D01*
X116925Y199560D01*
X120311Y206332D02*
X122004Y208024D01*
X125389D01*
X127082Y206332D01*
Y204639D01*
X125389Y202946D01*
X123696D01*
X125389D01*
X127082Y201253D01*
Y199560D01*
X125389Y197868D01*
X122004D01*
X120311Y199560D01*
X186267Y113368D02*
X184574Y115060D01*
X181189D01*
X179496Y113368D01*
Y106596D01*
X181189Y104904D01*
X184574D01*
X186267Y106596D01*
X196424Y104904D02*
X189653D01*
X196424Y111675D01*
Y113368D01*
X194731Y115060D01*
X191346D01*
X189653Y113368D01*
X161290Y206332D02*
X159597Y208024D01*
X156212D01*
X154519Y206332D01*
Y199560D01*
X156212Y197868D01*
X159597D01*
X161290Y199560D01*
X164676Y197868D02*
X168061D01*
X166368D01*
Y208024D01*
X164676Y206332D01*
M02*
